<svg width="1479" height="201" viewBox="0 0 1479 201" fill="none" xmlns="http://www.w3.org/2000/svg">
<g clip-path="url(#clip0)">
<path d="M50.65 195.65C33.23 195.65 16.82 195.65 0 195.65C0 130.57 0 65.84 0 0.48C1.86 0.33 3.77 0.04 5.68 0.04C50 0 94.33 0 138.66 0C144.36 0 144.41 0.0499997 144.42 5.95C144.44 15.62 144.44 25.28 144.41 34.95C144.39 40.7 144.25 40.85 138.53 40.85C111.87 40.87 85.2 40.84 58.54 40.87C50.4 40.88 50.6 40.09 50.61 48.71C50.62 57.71 50.58 66.71 50.62 75.71C50.64 80.9 50.73 81.02 55.98 81.03C78.81 81.07 101.64 81.06 124.47 81.06C125.8 81.06 127.14 81.09 128.47 81.08C130.52 81.06 131.54 82.05 131.54 84.12C131.53 95.12 131.53 106.12 131.54 117.11C131.54 119.18 130.52 120.17 128.48 120.18C127.15 120.19 125.81 120.21 124.48 120.21C101.98 120.21 79.49 120.2 56.99 120.22C50.68 120.23 50.61 120.31 50.61 126.69C50.61 147.19 50.63 167.68 50.65 188.18C50.65 190.48 50.65 192.78 50.65 195.65Z" fill="#6EB844"/>
<path d="M1206.65 71.41C1212.39 63.76 1219.53 57.87 1228.34 54.31C1247.83 46.44 1266.96 47.08 1284.62 58.85C1296.45 66.73 1300.98 79.47 1301.4 93.05C1302.21 119.18 1302.12 145.33 1302.36 171.47C1302.42 178.3 1302.32 185.13 1302.38 191.96C1302.41 194.62 1301.41 196 1298.6 195.99C1285.11 195.93 1271.61 195.94 1258.12 195.89C1257.49 195.89 1256.87 195.59 1255.82 195.31C1255.71 193.16 1255.52 191.05 1255.52 188.94C1255.51 165.12 1255.6 141.29 1255.49 117.47C1255.47 112.67 1255.13 107.79 1254.17 103.1C1252.27 93.8 1246.19 88.74 1236.72 88.06C1231.39 87.68 1226.06 87.6 1221.07 90.11C1213.06 94.14 1209.33 101.2 1207.62 109.49C1206.85 113.21 1206.65 117.09 1206.63 120.91C1206.55 143.9 1206.6 166.89 1206.59 189.88C1206.59 195.96 1206.56 195.98 1200.5 195.99C1188.67 196.01 1176.84 196.04 1165.02 195.99C1160.21 195.97 1159.88 195.67 1159.88 190.87C1159.85 146.72 1159.85 102.58 1159.87 58.43C1159.87 53.66 1160.2 53.37 1165.04 53.35C1176.87 53.31 1188.7 53.31 1200.52 53.35C1205.15 53.37 1205.28 53.54 1205.35 58.12C1205.41 62.41 1205.36 66.7 1205.36 70.99C1205.81 71.12 1206.23 71.27 1206.65 71.41Z" fill="#6EB844"/>
<path d="M1373.02 136.11C1373.95 140.75 1374.35 144.49 1375.46 148.02C1379.28 160.17 1389.06 167.54 1401.75 168.29C1411.64 168.88 1421.4 167.61 1427.49 159.25C1431.64 153.55 1436.19 152.8 1442.23 153C1451.38 153.29 1460.55 153.05 1469.72 153.07C1471.35 153.07 1472.98 153.21 1475.39 153.33C1474.59 155.97 1474.12 158.18 1473.28 160.25C1467.88 173.59 1458.96 183.99 1446.06 190.34C1419.32 203.5 1391.92 203.83 1365.01 191.47C1342.62 181.19 1331.19 162.19 1327.61 138.24C1325.06 121.15 1326.89 104.6 1335.19 89.24C1346.12 69.01 1363.2 56.62 1385.46 51.4C1399.52 48.1 1413.62 48.6 1427.46 52.64C1452.59 59.99 1467.68 77.34 1474.37 102.02C1476.78 110.93 1477.38 120.37 1478.28 129.62C1478.87 135.72 1478.12 136.13 1471.97 136.13C1441.98 136.14 1411.99 136.12 1382 136.12C1379.38 136.11 1376.77 136.11 1373.02 136.11ZM1430.96 109.75C1430.66 91.81 1416.91 79.5 1399.75 81.09C1385.94 82.37 1372.29 97.72 1374.57 109.75C1393.22 109.75 1411.93 109.75 1430.96 109.75Z" fill="#6EB844"/>
<path d="M491.67 136.13C491.55 146.74 494.89 155.01 502 161.49C513.14 171.64 535.19 170.59 545.46 159.69C545.69 159.45 546.01 159.24 546.13 158.96C548.6 153.12 553.45 152.84 558.89 153C568.38 153.28 577.88 153.05 587.37 153.06C589.16 153.06 590.95 153.21 593.36 153.32C592.68 155.6 592.26 157.34 591.64 159C585.85 174.71 575.05 185.92 559.85 192.44C535.41 202.93 510.57 202.94 486 192.89C467.72 185.41 455.44 171.84 449.15 153.14C443.2 135.44 442.27 117.37 448.68 99.69C459.2 70.66 480.68 54.74 510.88 50.18C525.18 48.02 539.18 49.63 552.53 55.13C575.18 64.46 587.82 82.28 593.24 105.47C595.12 113.51 595.57 121.92 596.2 130.19C596.61 135.64 595.83 136.1 590.24 136.11C559.42 136.13 528.61 136.12 497.79 136.13C495.99 136.13 494.2 136.13 491.67 136.13ZM491.94 109.66C511.12 109.66 529.97 109.66 548.79 109.66C549.71 97.86 539.46 81.72 522.91 80.93C504.98 80.08 493.2 94.09 491.94 109.66Z" fill="#6EB844"/>
<path d="M1062.08 200.12C1040.2 199.89 1022.38 194.02 1007.66 180.27C997.16 170.46 990.39 158.29 987.29 144.29C982.13 120.93 985.18 98.88 999.28 79.08C1011.36 62.11 1028.28 53 1048.67 50.13C1063.31 48.07 1077.64 49.63 1091.24 55.56C1115.83 66.29 1129.87 85.47 1134.29 111.61C1137.47 130.44 1134.52 148.51 1124.63 165.04C1112.83 184.76 1095.01 195.58 1072.53 199.07C1068.44 199.71 1064.27 199.91 1062.08 200.12ZM1088.59 125.35C1088.91 125.29 1089.24 125.22 1089.56 125.16C1088.11 118.03 1087.17 110.74 1085.09 103.8C1081.85 92.98 1072.58 85.66 1062.72 85.1C1050.48 84.41 1041.34 89.3 1036.58 100.36C1029.68 116.38 1029.46 132.78 1036.45 148.88C1039.36 155.6 1044.08 160.97 1051.59 163.14C1065.84 167.26 1078.49 161.37 1084.38 147.75C1087.45 140.62 1088.75 133.12 1088.59 125.35Z" fill="#6EB844"/>
<path d="M159.11 124.31C159.25 108.97 162.88 94.63 171.45 81.75C182.64 64.94 198.29 54.8 218.07 51.01C239.45 46.91 259.57 50.07 277.76 62.33C295.3 74.16 305.12 91.1 308.45 111.79C311.2 128.86 309.03 145.4 301.09 160.84C289.74 182.9 271.14 195.06 246.97 199.08C235.65 200.96 224.38 200.43 213.32 197.37C184.37 189.37 167.15 170.3 160.71 141.19C160.21 138.92 159.84 136.6 159.65 134.29C159.35 130.97 159.27 127.64 159.11 124.31ZM263.61 124.49C262.16 117.53 261.2 110.41 259.11 103.65C257.01 96.85 252.83 91.14 246.18 87.8C231.89 80.61 215.69 86.94 209.76 102.37C204.03 117.26 204.03 132.34 209.78 147.27C214.03 158.3 222.59 164.27 233.78 164.36C245.4 164.45 253.99 158.64 258.59 147.65C261.67 140.28 262.71 132.58 263.61 124.49Z" fill="#6EB844"/>
<path d="M611.78 149.1C620.24 149.1 627.89 149.1 635.53 149.1C640.86 149.1 646.2 149.17 651.53 149.08C654.02 149.04 655.68 149.68 656.13 152.43C658.57 167.33 674.03 171.33 684.58 169.7C689.06 169.01 693.75 167.44 697.54 165C705.17 160.09 704.75 149.77 696.97 145.21C693.73 143.31 689.99 142 686.32 141.11C674.67 138.27 662.89 135.98 651.28 133C645.35 131.48 639.5 129.34 633.92 126.8C618.22 119.63 612.5 104.92 614.08 88.82C615.8 71.25 627 61.24 642.52 55.42C657.25 49.9 672.62 48.6 688.27 49.71C698.64 50.45 708.77 52.09 718.38 56.25C733.42 62.76 742.02 74.16 744.28 90.35C744.46 91.63 744.3 92.95 744.3 94.74C730.16 94.74 716.29 94.74 702.14 94.74C701.83 93.59 701.49 92.51 701.24 91.41C700.06 86.19 696.58 83.02 691.77 81.3C683.79 78.45 675.72 78.74 667.72 81.24C664 82.4 661.27 84.76 660.7 88.89C660.13 93.03 662.04 96.3 665.43 98.1C669.95 100.5 674.71 102.81 679.64 103.99C691.13 106.74 702.8 108.71 714.36 111.15C725.07 113.42 734.44 118.09 741.53 126.77C755.37 143.73 749.5 168.55 738.39 180.11C729.11 189.75 717.63 195.04 704.79 197.54C681.9 201.99 659.33 201.49 637.82 191.33C622.43 184.06 614.04 171.5 611.82 154.74C611.6 153.15 611.78 151.51 611.78 149.1Z" fill="#6EB844"/>
<path d="M759.64 53.32C765.34 53.32 770.45 53.34 775.56 53.32C783.61 53.29 783.41 54.05 783.4 45.4C783.39 35.41 783.37 25.41 783.42 15.42C783.44 10.53 783.65 10.3 788.47 10.28C800.46 10.22 812.45 10.21 824.45 10.24C829.34 10.25 829.59 10.49 829.61 15.3C829.66 26.13 829.6 36.95 829.64 47.78C829.66 53.2 829.77 53.3 835.31 53.32C842.77 53.35 850.23 53.33 858.2 53.33C858.38 55.61 858.63 57.36 858.64 59.11C858.69 65.27 858.69 71.43 858.66 77.6C858.64 83.16 858.54 83.27 853.15 83.3C846.99 83.34 840.82 83.25 834.66 83.35C830.21 83.42 829.66 83.91 829.65 88.19C829.6 108.18 829.54 128.16 829.66 148.15C829.72 157.28 834.42 161.84 843.64 162.13C847.3 162.25 850.97 162.16 854.63 162.04C857.27 161.95 858.68 162.81 858.65 165.71C858.57 174.54 858.62 183.36 858.62 192.19C858.62 194.16 858.33 195.92 855.82 196.08C840.38 197.05 824.93 198.54 809.56 195.11C796.35 192.16 787.85 184.33 785.45 170.93C784.14 163.6 783.58 156.07 783.48 148.62C783.22 129.14 783.4 109.65 783.39 90.16C783.39 83.35 783.36 83.35 776.36 83.32C772.03 83.3 767.7 83.32 763.37 83.28C761.69 83.26 759.7 83.23 759.68 80.92C759.58 71.98 759.64 63.04 759.64 53.32Z" fill="#6EB844"/>
<path d="M336.11 53.65C338.03 53.52 339.49 53.33 340.96 53.33C352.45 53.31 363.95 53.29 375.44 53.32C381.14 53.34 381.23 53.44 381.26 59.28C381.29 64.75 381.27 70.21 381.27 75.68C381.6 75.78 381.93 75.89 382.26 75.99C382.99 74.84 383.77 73.71 384.45 72.53C392.46 58.61 404.82 51.97 420.54 51.09C424.19 50.89 427.87 51.04 431.52 51.22C433.63 51.33 435.49 52.06 435.49 54.74C435.49 67.53 435.49 80.32 435.49 93.57C430.09 92.9 425.23 92.08 420.34 91.73C398.46 90.16 382.73 104.18 382.57 124.82C382.4 146.47 382.49 168.13 382.45 189.79C382.44 195.96 382.4 195.97 376.45 195.98C364.46 195.99 352.46 196.01 340.47 195.96C335.92 195.94 335.7 195.74 335.7 191.12C335.68 146.64 335.69 102.16 335.71 57.68C335.72 56.54 335.94 55.4 336.11 53.65Z" fill="#6EB844"/>
<path d="M961.9 140.77C960.21 140.87 958.74 141.02 957.27 141.02C932.48 141.03 907.7 141.04 882.91 141.02C877.56 141.02 877.49 140.96 877.47 135.86C877.43 126.05 877.43 116.23 877.48 106.41C877.5 101.68 877.7 101.42 882.11 101.41C907.4 101.37 932.68 101.4 957.97 101.38C960.44 101.38 962.7 101.37 962.67 104.86C962.58 116.17 962.59 127.48 962.53 138.79C962.53 139.27 962.24 139.74 961.9 140.77Z" fill="#6EB844"/>
</g>
<defs>
<clipPath id="clip0">
<rect width="1478.43" height="200.47" fill="white"/>
</clipPath>
</defs>
</svg>
